# Blender v2.77 (sub 0) OBJ File: 'grid.blend'
# www.blender.org
mtllib grid.mtl
o Cube
v 3.849998 0.550000 3.587546
v -3.350000 0.750000 -3.350002
v 3.349999 0.750000 -3.350000
v -3.350002 0.750000 3.349998
v 3.349998 0.750000 3.350000
v -3.350000 0.450000 -3.350002
v 3.349999 0.450000 -3.350000
v -3.350002 0.450000 3.349998
v 3.349998 0.450000 3.350000
v 3.849999 -0.250000 3.587545
v 3.587544 -0.250000 3.850000
v -3.587546 -0.250000 3.849999
v -3.850001 -0.250000 3.587544
v -3.850000 -0.250000 -3.587546
v -3.587545 -0.250000 -3.850001
v 3.587546 -0.250000 -3.849999
v 3.850001 -0.250000 -3.587544
v 3.587543 0.550000 3.850001
v -3.850003 0.550000 3.587542
v -3.587548 0.550000 3.849997
v -3.587544 0.550000 -3.850002
v -3.849999 0.550000 -3.587547
v 3.850000 0.550000 -3.587544
v 3.587545 0.550000 -3.849999
v 2.233333 0.450000 -3.350000
v 1.116666 0.450000 -3.350001
v -0.000000 0.450000 -3.350001
v -1.116667 0.450000 -3.350001
v -2.233334 0.450000 -3.350001
v -3.350000 0.450000 -2.233335
v -3.350001 0.450000 -1.116668
v -3.350001 0.450000 -0.000002
v -3.350001 0.450000 1.116665
v -3.350001 0.450000 2.233331
v 2.233331 0.450000 3.349999
v 1.116665 0.450000 3.349999
v -0.000002 0.450000 3.349999
v -1.116669 0.450000 3.349998
v -2.233335 0.450000 3.349998
v 3.349999 0.450000 -2.233333
v 3.349999 0.450000 -1.116667
v 3.349998 0.450000 0.000000
v 3.349998 0.450000 1.116667
v 3.349998 0.450000 2.233334
v 2.233331 0.450000 2.233333
v 1.116665 0.450000 2.233333
v -0.000002 0.450000 2.233332
v -1.116668 0.450000 2.233332
v -2.233335 0.450000 2.233332
v 2.233332 0.450000 1.116666
v 1.116665 0.450000 1.116666
v -0.000001 0.450000 1.116666
v -1.116668 0.450000 1.116665
v -2.233335 0.450000 1.116665
v 2.233332 0.450000 -0.000000
v 1.116665 0.450000 -0.000001
v -0.000001 0.450000 -0.000001
v -1.116668 0.450000 -0.000001
v -2.233334 0.450000 -0.000002
v 2.233332 0.450000 -1.116667
v 1.116666 0.450000 -1.116667
v -0.000001 0.450000 -1.116668
v -1.116668 0.450000 -1.116668
v -2.233334 0.450000 -1.116668
v 2.233332 0.450000 -2.233334
v 1.116666 0.450000 -2.233334
v -0.000001 0.450000 -2.233334
v -1.116667 0.450000 -2.233335
v -2.233334 0.450000 -2.233335
v 3.349999 0.750000 -1.116667
v 3.349998 0.750000 0.000000
v 3.849999 0.550000 -1.113772
v 3.849999 0.550000 0.000001
vn 1.000000 0.000000 0.000000
vn -1.000000 -0.000000 -0.000000
vn 0.000000 -0.000000 -1.000000
vn -0.000000 0.000000 1.000000
vn -0.006800 0.929600 -0.368600
vn -0.368600 0.929600 0.006800
vn 0.006800 0.929600 0.368600
vn 0.000000 -0.597100 -0.802100
vn 0.000000 -1.000000 -0.000000
vn 0.000000 1.000000 -0.000000
vn -0.707100 -0.000000 -0.707100
vn 0.707100 0.000000 -0.707100
vn 0.707100 0.000000 0.707100
vn -0.707100 0.000000 0.707100
vn 0.371400 0.928500 0.000000
vn -0.005800 0.000000 1.000000
vn 0.253200 0.933700 -0.253200
vn -0.253200 0.933700 -0.253200
vn -0.253200 0.933700 0.253200
vn 0.253200 0.933700 0.253200
vn 0.000000 0.928500 -0.371400
vn -0.371400 0.928500 -0.000000
vn -0.000000 0.928500 0.371400
vn -0.196100 0.980600 -0.000000
usemtl wood
s off
f 1//1 10//1 17//1 23//1 72//1 73//1
f 13//2 19//2 22//2 14//2
f 15//3 21//3 24//3 16//3
f 11//4 18//4 20//4 12//4
f 3//5 24//5 21//5 22//5 2//5
f 3//4 2//4 6//4 7//4
f 4//6 2//6 22//6 19//6 20//6
f 18//7 1//7 5//7 4//7 20//7
f 8//8 9//8 35//8 36//8 37//8 38//8 39//8
f 2//1 4//1 8//1 6//1
f 4//3 5//3 9//3 8//3
f 7//4 6//4 29//4 28//4 27//4 26//4 25//4
f 9//9 7//9 40//9 41//9 42//9 43//9 44//9
f 6//10 8//10 34//10 33//10 32//10 31//10 30//10
f 14//11 22//11 21//11 15//11
f 16//12 24//12 23//12 17//12
f 10//13 1//13 18//13 11//13
f 12//14 20//14 19//14 13//14
f 10//9 11//9 12//9 13//9 14//9 15//9 16//9 17//9
f 1//15 73//15 71//15 5//15
f 71//3 73//3 42//3
f 70//16 41//16 72//16
f 23//15 3//15 70//15 72//15
f 23//17 24//17 3//17
f 70//2 3//2 7//2 41//2
f 71//2 42//2 9//2 5//2
f 2//18 21//18 22//18
f 4//19 19//19 20//19
f 5//20 18//20 1//20
f 3//21 24//21 21//21 2//21
f 2//22 22//22 19//22 4//22
f 18//23 5//23 4//23 20//23
usemtl velvet
f 69//10 29//10 6//10 30//10
f 39//10 49//10 34//10 8//10
f 49//10 54//10 33//10 34//10
f 54//10 59//10 32//10 33//10
f 59//10 64//10 31//10 32//10
f 64//10 69//10 30//10 31//10
f 9//10 44//10 45//10 35//10
f 35//10 45//10 46//10 36//10
f 36//10 46//10 47//10 37//10
f 37//10 47//10 48//10 38//10
f 38//10 48//10 49//10 39//10
f 44//10 43//10 50//10 45//10
f 45//10 50//10 51//10 46//10
f 46//10 51//10 52//10 47//10
f 47//10 52//10 53//10 48//10
f 48//10 53//10 54//10 49//10
f 43//10 42//10 55//10 50//10
f 50//10 55//10 56//10 51//10
f 51//10 56//10 57//10 52//10
f 52//10 57//10 58//10 53//10
f 53//10 58//10 59//10 54//10
f 42//10 41//10 60//10 55//10
f 55//10 60//10 61//10 56//10
f 56//10 61//10 62//10 57//10
f 57//10 62//10 63//10 58//10
f 58//10 63//10 64//10 59//10
f 41//10 40//10 65//10 60//10
f 60//10 65//10 66//10 61//10
f 61//10 66//10 67//10 62//10
f 62//10 67//10 68//10 63//10
f 63//10 68//10 69//10 64//10
f 40//10 7//10 25//10 65//10
f 65//10 25//10 26//10 66//10
f 66//10 26//10 27//10 67//10
f 67//10 27//10 28//10 68//10
f 68//10 28//10 29//10 69//10
f 72//24 41//24 42//24 73//24
